<?xml version="1.0" encoding="iso-8859-1" standalone="no"?> 
<?xml-stylesheet href="notes.css" type="text/css"?> 
<svg xmlns="http://www.w3.org/2000/svg" xmlns:xlink="http://www.w3.org/1999/xlink" width="166.55821pt" height="97.30548pt" viewBox="38.85274 -10.0 166.55821 97.30548 "> 
<g transform="translate(0, 87.30548 ) scale(1,-1) translate(0,10.0 )"> 
<g stroke="#000" fill="#000">
 <g stroke-width="0.4">
 <g transform="translate(42.97835,-3.02588)">
 <g fill="#000">
 <text style="stroke:none" transform="scale(1,-1) translate(5.87439,0)" text-anchor="middle"  font-size="10.95"> 
<g fill="#000">
 <g stroke="none"> <tspan font-family="zplmr7y" font-size="">ℵ</tspan><tspan baseline-shift="sub"><tspan font-family="pplr7t" font-size="">1</tspan> </tspan> </g> </g>
 </text> 
</g>
 </g>
 <g transform="translate(42.97835,74.2796)">
 <g fill="#000">
 <text style="stroke:none" transform="scale(1,-1) translate(5.87439,0)" text-anchor="middle"  font-size="10.95"> 
<g fill="#000">
 <g stroke="none"> <tspan font-family="zplmr7y" font-size="">ℵ</tspan><tspan baseline-shift="sub"><tspan font-family="pplr7t" font-size="">1</tspan> </tspan> </g> </g>
 </text> 
</g>
 </g>
 <path d=" M 48.85274 67.10548 L 48.85274 10.65999  " fill="none"/>
 <g transform="matrix(0.0,-1.0,1.0,0.0,48.85274,10.65999)">
 <g stroke-width="0.31999">
 <g stroke-dasharray="none" stroke-dashoffset="0.0">
 <g stroke-linecap="round">
 <g stroke-linejoin="round">
 <path d=" M -1.19998 1.59998 C -1.09998 0.99998 0.0 0.09999 0.29999 0.0 C 0.0 -0.09999 -1.09998 -0.99998 -1.19998 -1.59998  " fill="none"/>
 </g>
 </g>
 </g>
 </g>
  </g>
 <g transform="translate(91.83109,-3.02588)">
 <g fill="#000">
 <text style="stroke:none" transform="scale(1,-1) translate(5.87439,0)" text-anchor="middle"  font-size="10.95"> 
<g fill="#000">
 <g stroke="none"> <tspan font-family="zplmr7y" font-size="">ℵ</tspan><tspan baseline-shift="sub"><tspan font-family="pplr7t" font-size="">1</tspan> </tspan> </g> </g>
 </text> 
</g>
 </g>
 <path d=" M 87.50548 0.0 L 59.51273 0.0  " fill="none"/>
 <g transform="matrix(-1.0,0.0,0.0,-1.0,59.51273,0.0)">
 <g stroke-width="0.31999">
 <g stroke-dasharray="none" stroke-dashoffset="0.0">
 <g stroke-linecap="round">
 <g stroke-linejoin="round">
 <path d=" M -1.19998 1.59998 C -1.09998 0.99998 0.0 0.09999 0.29999 0.0 C 0.0 -0.09999 -1.09998 -0.99998 -1.19998 -1.59998  " fill="none"/>
 </g>
 </g>
 </g>
 </g>
  </g>
 <g transform="translate(91.83109,37.29094)">
 <g fill="#000">
 <text style="stroke:none" transform="scale(1,-1) translate(5.87439,0)" text-anchor="middle"  font-size="10.95"> 
<g fill="#000">
 <g stroke="none"> <tspan font-family="zplmr7y" font-size="">ℵ</tspan><tspan baseline-shift="sub"><tspan font-family="pplr7t" font-size="">1</tspan> </tspan> </g> </g>
 </text> 
</g>
 </g>
 <path d=" M 97.70547 30.11682 L 97.70547 10.65999  " fill="none"/>
 <g transform="matrix(0.0,-1.0,1.0,0.0,97.70547,10.65999)">
 <g stroke-width="0.31999">
 <g stroke-dasharray="none" stroke-dashoffset="0.0">
 <g stroke-linecap="round">
 <g stroke-linejoin="round">
 <path d=" M -1.19998 1.59998 C -1.09998 0.99998 0.0 0.09999 0.29999 0.0 C 0.0 -0.09999 -1.09998 -0.99998 -1.19998 -1.59998  " fill="none"/>
 </g>
 </g>
 </g>
 </g>
  </g>
 <g transform="translate(91.83109,74.2796)">
 <g fill="#000">
 <text style="stroke:none" transform="scale(1,-1) translate(5.87439,0)" text-anchor="middle"  font-size="10.95"> 
<g fill="#000">
 <g stroke="none"> <tspan font-family="zplmr7y" font-size="">ℵ</tspan><tspan baseline-shift="sub"><tspan font-family="pplr7t" font-size="">1</tspan> </tspan> </g> </g>
 </text> 
</g>
 </g>
 <path d=" M 87.50548 77.30548 L 59.51273 77.30548  " fill="none"/>
 <g transform="matrix(-1.0,0.0,0.0,-1.0,59.51273,77.30548)">
 <g stroke-width="0.31999">
 <g stroke-dasharray="none" stroke-dashoffset="0.0">
 <g stroke-linecap="round">
 <g stroke-linejoin="round">
 <path d=" M -1.19998 1.59998 C -1.09998 0.99998 0.0 0.09999 0.29999 0.0 C 0.0 -0.09999 -1.09998 -0.99998 -1.19998 -1.59998  " fill="none"/>
 </g>
 </g>
 </g>
 </g>
  </g>
 <path d=" M 97.70547 67.10548 L 97.70547 50.9768  " fill="none"/>
 <g transform="matrix(0.0,-1.0,1.0,0.0,97.70547,50.9768)">
 <g stroke-width="0.31999">
 <g stroke-dasharray="none" stroke-dashoffset="0.0">
 <g stroke-linecap="round">
 <g stroke-linejoin="round">
 <path d=" M -1.19998 1.59998 C -1.09998 0.99998 0.0 0.09999 0.29999 0.0 C 0.0 -0.09999 -1.09998 -0.99998 -1.19998 -1.59998  " fill="none"/>
 </g>
 </g>
 </g>
 </g>
  </g>
 <g transform="translate(144.42595,-2.6025)">
 <g fill="#000">
 <text style="stroke:none" transform="scale(1,-1) translate(2.13226,0)" text-anchor="middle"  font-size="10.95"> 
<g fill="#000">
 <g stroke="none"> <tspan font-family="eufm" font-size="10">𝔠</tspan> </g> </g>
 </text> 
</g>
 </g>
 <path d=" M 136.35822 0.0 L 108.36546 0.0  " fill="none"/>
 <g transform="matrix(-1.0,0.0,0.0,-1.0,108.36546,0.0)">
 <g stroke-width="0.31999">
 <g stroke-dasharray="none" stroke-dashoffset="0.0">
 <g stroke-linecap="round">
 <g stroke-linejoin="round">
 <path d=" M -1.19998 1.59998 C -1.09998 0.99998 0.0 0.09999 0.29999 0.0 C 0.0 -0.09999 -1.09998 -0.99998 -1.19998 -1.59998  " fill="none"/>
 </g>
 </g>
 </g>
 </g>
  </g>
 <g transform="translate(144.42595,37.71432)">
 <g fill="#000">
 <text style="stroke:none" transform="scale(1,-1) translate(2.13226,0)" text-anchor="middle"  font-size="10.95"> 
<g fill="#000">
 <g stroke="none"> <tspan font-family="eufm" font-size="10">𝔠</tspan> </g> </g>
 </text> 
</g>
 </g>
 <path d=" M 136.35822 40.31682 L 108.36546 40.31682  " fill="none"/>
 <g transform="matrix(-1.0,0.0,0.0,-1.0,108.36546,40.31682)">
 <g stroke-width="0.31999">
 <g stroke-dasharray="none" stroke-dashoffset="0.0">
 <g stroke-linecap="round">
 <g stroke-linejoin="round">
 <path d=" M -1.19998 1.59998 C -1.09998 0.99998 0.0 0.09999 0.29999 0.0 C 0.0 -0.09999 -1.09998 -0.99998 -1.19998 -1.59998  " fill="none"/>
 </g>
 </g>
 </g>
 </g>
  </g>
 <path d=" M 146.55821 30.11682 L 146.55821 10.65999  " fill="none"/>
 <g transform="matrix(0.0,-1.0,1.0,0.0,146.55821,10.65999)">
 <g stroke-width="0.31999">
 <g stroke-dasharray="none" stroke-dashoffset="0.0">
 <g stroke-linecap="round">
 <g stroke-linejoin="round">
 <path d=" M -1.19998 1.59998 C -1.09998 0.99998 0.0 0.09999 0.29999 0.0 C 0.0 -0.09999 -1.09998 -0.99998 -1.19998 -1.59998  " fill="none"/>
 </g>
 </g>
 </g>
 </g>
  </g>
 <g transform="translate(144.42595,74.70299)">
 <g fill="#000">
 <text style="stroke:none" transform="scale(1,-1) translate(2.13226,0)" text-anchor="middle"  font-size="10.95"> 
<g fill="#000">
 <g stroke="none"> <tspan font-family="eufm" font-size="10">𝔠</tspan> </g> </g>
 </text> 
</g>
 </g>
 <path d=" M 136.35822 77.30548 L 108.36546 77.30548  " fill="none"/>
 <g transform="matrix(-1.0,0.0,0.0,-1.0,108.36546,77.30548)">
 <g stroke-width="0.31999">
 <g stroke-dasharray="none" stroke-dashoffset="0.0">
 <g stroke-linecap="round">
 <g stroke-linejoin="round">
 <path d=" M -1.19998 1.59998 C -1.09998 0.99998 0.0 0.09999 0.29999 0.0 C 0.0 -0.09999 -1.09998 -0.99998 -1.19998 -1.59998  " fill="none"/>
 </g>
 </g>
 </g>
 </g>
  </g>
 <path d=" M 146.55821 67.10548 L 146.55821 50.9768  " fill="none"/>
 <g transform="matrix(0.0,-1.0,1.0,0.0,146.55821,50.9768)">
 <g stroke-width="0.31999">
 <g stroke-dasharray="none" stroke-dashoffset="0.0">
 <g stroke-linecap="round">
 <g stroke-linejoin="round">
 <path d=" M -1.19998 1.59998 C -1.09998 0.99998 0.0 0.09999 0.29999 0.0 C 0.0 -0.09999 -1.09998 -0.99998 -1.19998 -1.59998  " fill="none"/>
 </g>
 </g>
 </g>
 </g>
  </g>
 <g transform="translate(193.27869,-2.6025)">
 <g fill="#000">
 <text style="stroke:none" transform="scale(1,-1) translate(2.13226,0)" text-anchor="middle"  font-size="10.95"> 
<g fill="#000">
 <g stroke="none"> <tspan font-family="eufm" font-size="10">𝔠</tspan> </g> </g>
 </text> 
</g>
 </g>
 <path d=" M 185.21095 0.0 L 157.2182 0.0  " fill="none"/>
 <g transform="matrix(-1.0,0.0,0.0,-1.0,157.2182,0.0)">
 <g stroke-width="0.31999">
 <g stroke-dasharray="none" stroke-dashoffset="0.0">
 <g stroke-linecap="round">
 <g stroke-linejoin="round">
 <path d=" M -1.19998 1.59998 C -1.09998 0.99998 0.0 0.09999 0.29999 0.0 C 0.0 -0.09999 -1.09998 -0.99998 -1.19998 -1.59998  " fill="none"/>
 </g>
 </g>
 </g>
 </g>
  </g>
 <g transform="translate(193.27869,74.70299)">
 <g fill="#000">
 <text style="stroke:none" transform="scale(1,-1) translate(2.13226,0)" text-anchor="middle"  font-size="10.95"> 
<g fill="#000">
 <g stroke="none"> <tspan font-family="eufm" font-size="10">𝔠</tspan> </g> </g>
 </text> 
</g>
 </g>
 <path d=" M 185.21095 77.30548 L 157.2182 77.30548  " fill="none"/>
 <g transform="matrix(-1.0,0.0,0.0,-1.0,157.2182,77.30548)">
 <g stroke-width="0.31999">
 <g stroke-dasharray="none" stroke-dashoffset="0.0">
 <g stroke-linecap="round">
 <g stroke-linejoin="round">
 <path d=" M -1.19998 1.59998 C -1.09998 0.99998 0.0 0.09999 0.29999 0.0 C 0.0 -0.09999 -1.09998 -0.99998 -1.19998 -1.59998  " fill="none"/>
 </g>
 </g>
 </g>
 </g>
  </g>
 <path d=" M 195.41095 67.10548 L 195.41095 10.65999  " fill="none"/>
 <g transform="matrix(0.0,-1.0,1.0,0.0,195.41095,10.65999)">
 <g stroke-width="0.31999">
 <g stroke-dasharray="none" stroke-dashoffset="0.0">
 <g stroke-linecap="round">
 <g stroke-linejoin="round">
 <path d=" M -1.19998 1.59998 C -1.09998 0.99998 0.0 0.09999 0.29999 0.0 C 0.0 -0.09999 -1.09998 -0.99998 -1.19998 -1.59998  " fill="none"/>
 </g>
 </g>
 </g>
 </g>
  </g>
 </g>
 </g>
 
                                              </g> 
</svg> 
