<?xml version="1.0" encoding="iso-8859-1" standalone="no"?>
<?xml-stylesheet href="notes.css" type="text/css"?>
<svg xmlns="http://www.w3.org/2000/svg" xmlns:xlink="http://www.w3.org/1999/xlink" width="316.06989pt" height="72.9555pt" viewBox="-0.59999 -64.51624 316.06989 72.9555 ">
<g transform="translate(0, 8.43927 ) scale(1,-1) translate(0,64.51624 )">
<g stroke="#000" fill="#000">
 <g stroke-width="0.4">
 <path d=" M 0.29999 0.0 L 284.22745 0.0  " fill="none"/>
 <g transform="matrix(-1.0,0.0,0.0,-1.0,0.29999,0.0)">
 <g stroke-dasharray="none" stroke-dashoffset="0.0">
 <g stroke-linecap="square">
 <path d=" M 0.09999 -2.59999 L 0.09999 2.59999  " fill="none"/>
 </g>
 </g>
  </g>
 <g transform="translate(284.22745,0.0)">
 <g stroke-dasharray="none" stroke-dashoffset="0.0">
 <g stroke-linecap="square">
 <path d=" M 0.09999 -2.59999 L 0.09999 2.59999  " fill="none"/>
 </g>
 </g>
  </g>
 <g transform="translate(288.37703,-2.92459)">
 <g fill="#000">
 <text style="stroke:none" transform="scale(1,-1) translate(11.72163,0)" text-anchor="middle"  font-size="10.95">
 <tspan font-family="zplmr7m" font-size="">C</tspan><tspan baseline-shift="sub"><tspan font-family="pplr7t" font-size="">1</tspan></tspan>
 </text>
</g>
 </g>
 <path d=" M 0.29999 -14.22636 L 94.54234 -14.22636  " fill="none"/>
 <g transform="matrix(-1.0,0.0,0.0,-1.0,0.29999,-14.22636)">
 <g stroke-dasharray="none" stroke-dashoffset="0.0">
 <g stroke-linecap="square">
 <path d=" M 0.09999 -2.59999 L 0.09999 2.59999  " fill="none"/>
 </g>
 </g>
  </g>
 <g transform="translate(94.54234,-14.22636)">
 <g stroke-dasharray="none" stroke-dashoffset="0.0">
 <g stroke-linecap="square">
 <path d=" M 0.09999 -2.59999 L 0.09999 2.59999  " fill="none"/>
 </g>
 </g>
  </g>
 <path d=" M 189.98465 -14.22636 L 284.22745 -14.22636  " fill="none"/>
 <g transform="matrix(-1.0,0.0,0.0,-1.0,189.98465,-14.22636)">
 <g stroke-dasharray="none" stroke-dashoffset="0.0">
 <g stroke-linecap="square">
 <path d=" M 0.09999 -2.59999 L 0.09999 2.59999  " fill="none"/>
 </g>
 </g>
  </g>
 <g transform="translate(284.22745,-14.22636)">
 <g stroke-dasharray="none" stroke-dashoffset="0.0">
 <g stroke-linecap="square">
 <path d=" M 0.09999 -2.59999 L 0.09999 2.59999  " fill="none"/>
 </g>
 </g>
  </g>
 <g transform="translate(288.37703,-17.21097)">
 <g fill="#000">
 <text style="stroke:none" transform="scale(1,-1) translate(11.72163,0)" text-anchor="middle"  font-size="10.95">
<g fill="#000">
 <g stroke="none">   <tspan font-family="zplmr7m" font-size="">C</tspan><tspan baseline-shift="sub"><tspan font-family="pplr7t" font-size="">2</tspan></tspan></g> </g>
 </text>
</g>
 </g>
 <path d=" M 0.29999 -28.45274 L 31.31383 -28.45274  " fill="none"/>
 <g transform="matrix(-1.0,0.0,0.0,-1.0,0.29999,-28.45274)">
 <g stroke-dasharray="none" stroke-dashoffset="0.0">
 <g stroke-linecap="square">
 <path d=" M 0.09999 -2.59999 L 0.09999 2.59999  " fill="none"/>
 </g>
 </g>
  </g>
 <g transform="translate(31.31383,-28.45274)">
 <g stroke-dasharray="none" stroke-dashoffset="0.0">
 <g stroke-linecap="square">
 <path d=" M 0.09999 -2.59999 L 0.09999 2.59999  " fill="none"/>
 </g>
 </g>
  </g>
 <path d=" M 63.52806 -28.45274 L 94.54234 -28.45274  " fill="none"/>
 <g transform="matrix(-1.0,0.0,0.0,-1.0,63.52806,-28.45274)">
 <g stroke-dasharray="none" stroke-dashoffset="0.0">
 <g stroke-linecap="square">
 <path d=" M 0.09999 -2.59999 L 0.09999 2.59999  " fill="none"/>
 </g>
 </g>
  </g>
 <g transform="translate(94.54234,-28.45274)">
 <g stroke-dasharray="none" stroke-dashoffset="0.0">
 <g stroke-linecap="square">
 <path d=" M 0.09999 -2.59999 L 0.09999 2.59999  " fill="none"/>
 </g>
 </g>
  </g>
 <path d=" M 189.98465 -28.45274 L 220.99893 -28.45274  " fill="none"/>
 <g transform="matrix(-1.0,0.0,0.0,-1.0,189.98465,-28.45274)">
 <g stroke-dasharray="none" stroke-dashoffset="0.0">
 <g stroke-linecap="square">
 <path d=" M 0.09999 -2.59999 L 0.09999 2.59999  " fill="none"/>
 </g>
 </g>
  </g>
 <g transform="translate(220.99893,-28.45274)">
 <g stroke-dasharray="none" stroke-dashoffset="0.0">
 <g stroke-linecap="square">
 <path d=" M 0.09999 -2.59999 L 0.09999 2.59999  " fill="none"/>
 </g>
 </g>
  </g>
 <path d=" M 253.21317 -28.45274 L 284.22745 -28.45274  " fill="none"/>
 <g transform="matrix(-1.0,0.0,0.0,-1.0,253.21317,-28.45274)">
 <g stroke-dasharray="none" stroke-dashoffset="0.0">
 <g stroke-linecap="square">
 <path d=" M 0.09999 -2.59999 L 0.09999 2.59999  " fill="none"/>
 </g>
 </g>
  </g>
 <g transform="translate(284.22745,-28.45274)">
 <g stroke-dasharray="none" stroke-dashoffset="0.0">
 <g stroke-linecap="square">
 <path d=" M 0.09999 -2.59999 L 0.09999 2.59999  " fill="none"/>
 </g>
 </g>
  </g>
 <g transform="translate(288.37703,-31.39732)">
 <g fill="#000">
 <text style="stroke:none" transform="scale(1,-1) translate(11.72163,0)" text-anchor="middle"  font-size="10.95">
<g fill="#000">
 <g stroke="none">   <tspan font-family="zplmr7m" font-size="">C</tspan><tspan baseline-shift="sub"><tspan font-family="pplr7t" font-size="">3</tspan></tspan></g> </g>
 </text>
</g>
 </g>
 <g transform="translate(288.37703,-47.44142)">
 <g fill="#000">
 <text style="stroke:none" transform="scale(1,-1) translate(9.84389,0)" text-anchor="middle"  font-size="10.95">
<g fill="#000">
 <g stroke="none">    <img
src="notes0x.png" alt="..."  class="vdots"  /> </g> </g>
 </text>
</g>
 </g>
 <g stroke-width="1.2">
 <path d=" M 0.0 -56.90549 L 0.39003 -56.90549 M 0.78008 -56.90549 L 1.17026 -56.90549 M 2.34052 -56.90549 L 2.73068 -56.90549 M 3.12086 -56.90549 L 3.51117 -56.90549 M 7.02235 -56.90549 L 7.41252 -56.90549 M 7.80269 -56.90549 L 8.193 -56.90549 M 9.36363 -56.90549 L 9.75392 -56.90549 M 10.14423 -56.90549 L 10.53467 -56.90549 M 21.06934 -56.90549 L 21.4595 -56.90549 M 21.84967 -56.90549 L 22.23997 -56.90549 M 23.41061 -56.90549 L 23.8009 -56.90549 M 24.19121 -56.90549 L 24.58163 -56.90549 M 28.09395 -56.90549 L 28.48424 -56.90549 M 28.87454 -56.90549 L 29.26497 -56.90549 M 30.43599 -56.90549 L 30.8264 -56.90549 M 31.21683 -56.90549 L 31.60739 -56.90549 M 63.2148 -56.90549 L 63.60497 -56.90549 M 63.99513 -56.90549 L 64.38544 -56.90549 M 65.55608 -56.90549 L 65.94637 -56.90549 M 66.33667 -56.90549 L 66.7271 -56.90549 M 70.2394 -56.90549 L 70.62968 -56.90549 M 71.01999 -56.90549 L 71.41042 -56.90549 M 72.58144 -56.90549 L 72.97185 -56.90549 M 73.36227 -56.90549 L 73.75284 -56.90549 M 84.2909 -56.90549 L 84.68118 -56.90549 M 85.07147 -56.90549 L 85.4619 -56.90549 M 86.63292 -56.90549 L 87.02333 -56.90549 M 87.41376 -56.90549 L 87.80432 -56.90549 M 91.31776 -56.90549 L 91.70818 -56.90549 M 92.0986 -56.90549 L 92.48915 -56.90549 M 93.66055 -56.90549 L 94.0511 -56.90549 M 94.44165 -56.90549 L 94.83234 -56.90549 M 189.66469 -56.90549 L 190.05486 -56.90549 M 190.44502 -56.90549 L 190.83533 -56.90549 M 192.00597 -56.90549 L 192.39626 -56.90549 M 192.78656 -56.90549 L 193.17699 -56.90549 M 196.68929 -56.90549 L 197.07957 -56.90549 M 197.46988 -56.90549 L 197.8603 -56.90549 M 199.03133 -56.90549 L 199.42174 -56.90549 M 199.81216 -56.90549 L 200.20273 -56.90549 M 210.74078 -56.90549 L 211.13107 -56.90549 M 211.52136 -56.90549 L 211.91179 -56.90549 M 213.08281 -56.90549 L 213.47322 -56.90549 M 213.86365 -56.90549 L 214.25421 -56.90549 M 217.76764 -56.90549 L 218.15805 -56.90549 M 218.54848 -56.90549 L 218.93903 -56.90549 M 220.11043 -56.90549 L 220.50098 -56.90549 M 220.89153 -56.90549 L 221.28221 -56.90549 M 252.89975 -56.90549 L 253.29004 -56.90549 M 253.68033 -56.90549 L 254.07076 -56.90549 M 255.24178 -56.90549 L 255.63219 -56.90549 M 256.02261 -56.90549 L 256.41318 -56.90549 M 259.9266 -56.90549 L 260.31702 -56.90549 M 260.70744 -56.90549 L 261.09799 -56.90549 M 262.2694 -56.90549 L 262.65994 -56.90549 M 263.05049 -56.90549 L 263.44118 -56.90549 M 273.98262 -56.90549 L 274.37303 -56.90549 M 274.76346 -56.90549 L 275.154 -56.90549 M 276.3254 -56.90549 L 276.71594 -56.90549 M 277.10649 -56.90549 L 277.49718 -56.90549 M 281.01173 -56.90549 L 281.40227 -56.90549 M 281.79282 -56.90549 L 282.1835 -56.90549 M 283.35527 -56.90549 L 283.74594 -56.90549 M 284.13663 -56.90549 L 284.52744 -56.90549  " fill="none"/>
 <g transform="translate(288.77702,-60.6586)">
 <g fill="#000">
 <text style="stroke:none" transform="scale(1,-1) translate(9.47163,0)" text-anchor="middle"  font-size="10.95">
<g fill="#000">
 <g stroke="none">   <tspan font-family="zplmr7m" font-size="">C</tspan> </g> </g>
 </text>
</g>
 </g>
 </g>
 </g>
 </g>

                                                        </g>
</svg>
